<mxfile host="www.draw.io" modified="2019-11-23T03:19:18.902Z" agent="Mozilla/5.0 (X11; Linux x86_64) AppleWebKit/537.36 (KHTML, like Gecko) Chrome/77.0.3865.90 Safari/537.36" etag="DojZ9Bq6ZFuTM1OvfjGv" version="12.2.9" type="github" pages="1">
  <diagram id="3ZzULZKJ4iDVL5elcM-s" name="Page-1">
    <mxGraphModel dx="1341" dy="760" grid="1" gridSize="10" guides="1" tooltips="1" connect="1" arrows="1" fold="1" page="1" pageScale="1" pageWidth="827" pageHeight="1169" math="0" shadow="0">
      <root>
        <mxCell id="0"/>
        <mxCell id="1" parent="0"/>
        <mxCell id="HT9z4iXDA5xoFThQ943V-9" style="edgeStyle=orthogonalEdgeStyle;rounded=0;orthogonalLoop=1;jettySize=auto;html=1;exitX=1;exitY=0.25;exitDx=0;exitDy=0;entryX=0;entryY=0.25;entryDx=0;entryDy=0;" edge="1" parent="1" source="HT9z4iXDA5xoFThQ943V-1" target="HT9z4iXDA5xoFThQ943V-2">
          <mxGeometry relative="1" as="geometry">
            <Array as="points">
              <mxPoint x="690" y="300"/>
              <mxPoint x="690" y="150"/>
              <mxPoint x="70" y="150"/>
              <mxPoint x="70" y="300"/>
            </Array>
          </mxGeometry>
        </mxCell>
        <mxCell id="HT9z4iXDA5xoFThQ943V-1" value="ADC0809" style="rounded=0;whiteSpace=wrap;html=1;" vertex="1" parent="1">
          <mxGeometry x="490" y="240" width="120" height="240" as="geometry"/>
        </mxCell>
        <mxCell id="HT9z4iXDA5xoFThQ943V-2" value="FPGA/控制模块" style="rounded=0;whiteSpace=wrap;html=1;" vertex="1" parent="1">
          <mxGeometry x="160" y="240" width="120" height="240" as="geometry"/>
        </mxCell>
        <mxCell id="HT9z4iXDA5xoFThQ943V-3" value="" style="shape=flexArrow;endArrow=classic;html=1;exitX=1;exitY=0.083;exitDx=0;exitDy=0;exitPerimeter=0;entryX=-0.017;entryY=0.079;entryDx=0;entryDy=0;entryPerimeter=0;" edge="1" parent="1" source="HT9z4iXDA5xoFThQ943V-2" target="HT9z4iXDA5xoFThQ943V-1">
          <mxGeometry width="50" height="50" relative="1" as="geometry">
            <mxPoint x="330" y="310" as="sourcePoint"/>
            <mxPoint x="380" y="260" as="targetPoint"/>
          </mxGeometry>
        </mxCell>
        <mxCell id="HT9z4iXDA5xoFThQ943V-4" value="模拟信号" style="text;html=1;strokeColor=none;fillColor=none;align=center;verticalAlign=middle;whiteSpace=wrap;rounded=0;" vertex="1" parent="1">
          <mxGeometry x="300" y="230" width="80" height="20" as="geometry"/>
        </mxCell>
        <mxCell id="HT9z4iXDA5xoFThQ943V-5" value="" style="shape=flexArrow;endArrow=classic;html=1;exitX=1;exitY=0.25;exitDx=0;exitDy=0;entryX=0;entryY=0.25;entryDx=0;entryDy=0;" edge="1" parent="1" source="HT9z4iXDA5xoFThQ943V-2" target="HT9z4iXDA5xoFThQ943V-1">
          <mxGeometry width="50" height="50" relative="1" as="geometry">
            <mxPoint x="310" y="330" as="sourcePoint"/>
            <mxPoint x="360" y="280" as="targetPoint"/>
          </mxGeometry>
        </mxCell>
        <mxCell id="HT9z4iXDA5xoFThQ943V-6" value="选通信号" style="text;html=1;align=center;verticalAlign=middle;resizable=0;points=[];;autosize=1;" vertex="1" parent="1">
          <mxGeometry x="310" y="270" width="60" height="20" as="geometry"/>
        </mxCell>
        <mxCell id="HT9z4iXDA5xoFThQ943V-7" value="" style="shape=flexArrow;endArrow=classic;html=1;exitX=1;exitY=0.25;exitDx=0;exitDy=0;entryX=0;entryY=0.25;entryDx=0;entryDy=0;" edge="1" parent="1">
          <mxGeometry width="50" height="50" relative="1" as="geometry">
            <mxPoint x="280" y="350" as="sourcePoint"/>
            <mxPoint x="490" y="350" as="targetPoint"/>
          </mxGeometry>
        </mxCell>
        <mxCell id="HT9z4iXDA5xoFThQ943V-8" value="start/OE/ALE" style="text;html=1;align=center;verticalAlign=middle;resizable=0;points=[];;autosize=1;" vertex="1" parent="1">
          <mxGeometry x="302" y="323" width="90" height="20" as="geometry"/>
        </mxCell>
        <mxCell id="HT9z4iXDA5xoFThQ943V-10" value="EOC" style="text;html=1;align=center;verticalAlign=middle;resizable=0;points=[];;autosize=1;" vertex="1" parent="1">
          <mxGeometry x="630" y="280" width="40" height="20" as="geometry"/>
        </mxCell>
        <mxCell id="HT9z4iXDA5xoFThQ943V-11" value="EOC" style="text;html=1;align=center;verticalAlign=middle;resizable=0;points=[];;autosize=1;" vertex="1" parent="1">
          <mxGeometry x="93" y="282" width="40" height="20" as="geometry"/>
        </mxCell>
        <mxCell id="HT9z4iXDA5xoFThQ943V-12" value="" style="endArrow=classic;html=1;entryX=-0.017;entryY=0.429;entryDx=0;entryDy=0;entryPerimeter=0;" edge="1" parent="1" target="HT9z4iXDA5xoFThQ943V-2">
          <mxGeometry width="50" height="50" relative="1" as="geometry">
            <mxPoint x="30" y="343" as="sourcePoint"/>
            <mxPoint x="80" y="340" as="targetPoint"/>
          </mxGeometry>
        </mxCell>
        <mxCell id="HT9z4iXDA5xoFThQ943V-13" value="模拟信号和选通信号" style="text;html=1;align=center;verticalAlign=middle;resizable=0;points=[];;autosize=1;" vertex="1" parent="1">
          <mxGeometry x="40" y="320" width="120" height="20" as="geometry"/>
        </mxCell>
        <mxCell id="HT9z4iXDA5xoFThQ943V-14" value="" style="endArrow=classic;html=1;entryX=-0.025;entryY=0.646;entryDx=0;entryDy=0;entryPerimeter=0;" edge="1" parent="1" target="HT9z4iXDA5xoFThQ943V-2">
          <mxGeometry width="50" height="50" relative="1" as="geometry">
            <mxPoint x="30" y="395" as="sourcePoint"/>
            <mxPoint x="70" y="400" as="targetPoint"/>
          </mxGeometry>
        </mxCell>
        <mxCell id="HT9z4iXDA5xoFThQ943V-15" value="CLK" style="text;html=1;align=center;verticalAlign=middle;resizable=0;points=[];;autosize=1;" vertex="1" parent="1">
          <mxGeometry x="69" y="378" width="40" height="20" as="geometry"/>
        </mxCell>
        <mxCell id="HT9z4iXDA5xoFThQ943V-16" value="" style="endArrow=classic;html=1;exitX=1.008;exitY=0.663;exitDx=0;exitDy=0;exitPerimeter=0;" edge="1" parent="1" source="HT9z4iXDA5xoFThQ943V-2">
          <mxGeometry width="50" height="50" relative="1" as="geometry">
            <mxPoint x="390" y="490" as="sourcePoint"/>
            <mxPoint x="489" y="399" as="targetPoint"/>
          </mxGeometry>
        </mxCell>
        <mxCell id="HT9z4iXDA5xoFThQ943V-17" value="CLK1" style="text;html=1;align=center;verticalAlign=middle;resizable=0;points=[];;autosize=1;" vertex="1" parent="1">
          <mxGeometry x="354" y="383" width="50" height="20" as="geometry"/>
        </mxCell>
        <mxCell id="HT9z4iXDA5xoFThQ943V-20" value="" style="edgeStyle=orthogonalEdgeStyle;rounded=0;orthogonalLoop=1;jettySize=auto;html=1;" edge="1" parent="1" source="HT9z4iXDA5xoFThQ943V-18" target="HT9z4iXDA5xoFThQ943V-19">
          <mxGeometry relative="1" as="geometry"/>
        </mxCell>
        <mxCell id="HT9z4iXDA5xoFThQ943V-18" value="s0" style="ellipse;whiteSpace=wrap;html=1;" vertex="1" parent="1">
          <mxGeometry x="180" y="561.5" width="120" height="80" as="geometry"/>
        </mxCell>
        <mxCell id="HT9z4iXDA5xoFThQ943V-22" value="" style="edgeStyle=orthogonalEdgeStyle;rounded=0;orthogonalLoop=1;jettySize=auto;html=1;" edge="1" parent="1" source="HT9z4iXDA5xoFThQ943V-19" target="HT9z4iXDA5xoFThQ943V-21">
          <mxGeometry relative="1" as="geometry"/>
        </mxCell>
        <mxCell id="HT9z4iXDA5xoFThQ943V-19" value="s1" style="ellipse;whiteSpace=wrap;html=1;" vertex="1" parent="1">
          <mxGeometry x="380" y="561.5" width="120" height="80" as="geometry"/>
        </mxCell>
        <mxCell id="HT9z4iXDA5xoFThQ943V-24" value="" style="edgeStyle=orthogonalEdgeStyle;rounded=0;orthogonalLoop=1;jettySize=auto;html=1;" edge="1" parent="1" source="HT9z4iXDA5xoFThQ943V-21" target="HT9z4iXDA5xoFThQ943V-23">
          <mxGeometry relative="1" as="geometry"/>
        </mxCell>
        <mxCell id="HT9z4iXDA5xoFThQ943V-21" value="s2" style="ellipse;whiteSpace=wrap;html=1;" vertex="1" parent="1">
          <mxGeometry x="580" y="561.5" width="120" height="80" as="geometry"/>
        </mxCell>
        <mxCell id="HT9z4iXDA5xoFThQ943V-26" value="" style="edgeStyle=orthogonalEdgeStyle;rounded=0;orthogonalLoop=1;jettySize=auto;html=1;" edge="1" parent="1" source="HT9z4iXDA5xoFThQ943V-23" target="HT9z4iXDA5xoFThQ943V-25">
          <mxGeometry relative="1" as="geometry"/>
        </mxCell>
        <mxCell id="HT9z4iXDA5xoFThQ943V-23" value="s3" style="ellipse;whiteSpace=wrap;html=1;" vertex="1" parent="1">
          <mxGeometry x="580" y="800" width="120" height="80" as="geometry"/>
        </mxCell>
        <mxCell id="HT9z4iXDA5xoFThQ943V-28" value="" style="edgeStyle=orthogonalEdgeStyle;rounded=0;orthogonalLoop=1;jettySize=auto;html=1;" edge="1" parent="1" source="HT9z4iXDA5xoFThQ943V-25" target="HT9z4iXDA5xoFThQ943V-27">
          <mxGeometry relative="1" as="geometry"/>
        </mxCell>
        <mxCell id="HT9z4iXDA5xoFThQ943V-25" value="s4" style="ellipse;whiteSpace=wrap;html=1;" vertex="1" parent="1">
          <mxGeometry x="380" y="800" width="120" height="80" as="geometry"/>
        </mxCell>
        <mxCell id="HT9z4iXDA5xoFThQ943V-31" style="edgeStyle=orthogonalEdgeStyle;rounded=0;orthogonalLoop=1;jettySize=auto;html=1;exitX=0.5;exitY=0;exitDx=0;exitDy=0;entryX=0.5;entryY=1;entryDx=0;entryDy=0;" edge="1" parent="1" source="HT9z4iXDA5xoFThQ943V-27" target="HT9z4iXDA5xoFThQ943V-29">
          <mxGeometry relative="1" as="geometry"/>
        </mxCell>
        <mxCell id="HT9z4iXDA5xoFThQ943V-27" value="s5" style="ellipse;whiteSpace=wrap;html=1;" vertex="1" parent="1">
          <mxGeometry x="180" y="800" width="120" height="80" as="geometry"/>
        </mxCell>
        <mxCell id="HT9z4iXDA5xoFThQ943V-32" style="edgeStyle=orthogonalEdgeStyle;rounded=0;orthogonalLoop=1;jettySize=auto;html=1;exitX=0.5;exitY=0;exitDx=0;exitDy=0;entryX=0.5;entryY=1;entryDx=0;entryDy=0;" edge="1" parent="1" source="HT9z4iXDA5xoFThQ943V-29" target="HT9z4iXDA5xoFThQ943V-18">
          <mxGeometry relative="1" as="geometry"/>
        </mxCell>
        <mxCell id="HT9z4iXDA5xoFThQ943V-29" value="s6" style="ellipse;whiteSpace=wrap;html=1;" vertex="1" parent="1">
          <mxGeometry x="180" y="681" width="120" height="80" as="geometry"/>
        </mxCell>
        <mxCell id="HT9z4iXDA5xoFThQ943V-34" value="" style="curved=1;endArrow=classic;html=1;" edge="1" parent="1" source="HT9z4iXDA5xoFThQ943V-23" target="HT9z4iXDA5xoFThQ943V-23">
          <mxGeometry width="50" height="50" relative="1" as="geometry">
            <mxPoint x="660" y="790" as="sourcePoint"/>
            <mxPoint x="650" y="960" as="targetPoint"/>
            <Array as="points">
              <mxPoint x="750" y="816"/>
              <mxPoint x="750" y="890"/>
              <mxPoint x="670" y="950"/>
              <mxPoint x="630" y="920"/>
            </Array>
          </mxGeometry>
        </mxCell>
        <mxCell id="HT9z4iXDA5xoFThQ943V-35" value="" style="curved=1;endArrow=classic;html=1;exitX=0.925;exitY=0.775;exitDx=0;exitDy=0;exitPerimeter=0;entryX=0;entryY=1;entryDx=0;entryDy=0;" edge="1" parent="1" source="HT9z4iXDA5xoFThQ943V-25" target="HT9z4iXDA5xoFThQ943V-25">
          <mxGeometry width="50" height="50" relative="1" as="geometry">
            <mxPoint x="487.0238277426797" y="901.5584375834155" as="sourcePoint"/>
            <mxPoint x="425.0172712087758" y="953.8618303297935" as="targetPoint"/>
            <Array as="points">
              <mxPoint x="500" y="890"/>
              <mxPoint x="500" y="910"/>
              <mxPoint x="480" y="930"/>
              <mxPoint x="430" y="940"/>
              <mxPoint x="380" y="920"/>
            </Array>
          </mxGeometry>
        </mxCell>
      </root>
    </mxGraphModel>
  </diagram>
</mxfile>
